<?xml version="1.0" standalone="no"?>
<svg xmlns="http://www.w3.org/2000/svg" width="206.0217524509804" height="33.96484375" viewBox="0 0 206.0217524509804 33.96484375"><path fill="#000000" fill-rule="nonzero" d="M0 33.65L6.15 0.29L11.97 0.29L18.14 33.65L13.03 33.65L12.11 27.68L6.02 27.68L5.14 33.65L0 33.65ZM6.60 23.87L11.52 23.87L9.18 7.25L8.96 7.25L6.60 23.87ZM21.37 33.65L21.37 0.29L26.43 0.29L26.43 29.67L33.32 29.67L33.32 33.65L21.37 33.65ZM36.52 33.65L36.52 0.29L41.58 0.29L41.58 29.67L48.48 29.67L48.48 33.65L36.52 33.65ZM50.39 26.89L50.39 26.89Q50.39 25.82 50.52 24.91Q50.64 24.00 50.90 22.95L50.90 22.95L54.82 22.95L54.82 24.57Q54.82 25.92 54.99 26.95Q55.16 27.99 55.54 28.70Q55.92 29.41 56.55 29.78Q57.19 30.14 58.11 30.14L58.11 30.14Q59.55 30.14 60.31 29.35Q61.07 28.55 61.07 27.03L61.07 27.03Q61.07 26.25 60.97 25.60Q60.86 24.94 60.60 24.30Q60.33 23.65 59.88 22.94Q59.43 22.23 58.73 21.35L58.73 21.35L53.46 15.08Q52.05 13.28 51.29 11.46Q50.53 9.63 50.53 7.56L50.53 7.56Q50.53 5.90 51.04 4.51Q51.56 3.13 52.54 2.12Q53.52 1.11 54.95 0.56Q56.39 0 58.20 0L58.20 0Q60.41 0 61.88 0.63Q63.36 1.25 64.24 2.27Q65.12 3.28 65.48 4.54Q65.84 5.80 65.84 7.07L65.84 7.07Q65.84 8.14 65.67 9.05Q65.51 9.96 65.29 11.05L65.29 11.05L61.39 11.05L61.39 9.47Q61.39 6.82 60.63 5.40Q59.86 3.98 58.14 3.98L58.14 3.98Q56.72 3.98 56.02 4.78Q55.31 5.57 55.31 6.89L55.31 6.89Q55.31 7.60 55.42 8.16Q55.53 8.73 55.73 9.21Q55.94 9.69 56.23 10.14Q56.52 10.59 56.89 11.07L56.89 11.07L62.77 18.18Q64.38 20.27 65.23 22.20Q66.09 24.12 66.09 26.27L66.09 26.27Q66.09 28.05 65.54 29.47Q64.98 30.90 63.95 31.89Q62.91 32.89 61.45 33.43Q59.98 33.96 58.14 33.96L58.14 33.96Q55.88 33.96 54.38 33.36Q52.89 32.75 52.00 31.76Q51.11 30.76 50.75 29.49Q50.39 28.22 50.39 26.89ZM70.35 33.65L70.35 0.29L75.41 0.29Q76.37 0.29 77.51 0.38Q78.65 0.47 79.79 0.79Q80.94 1.11 82.00 1.78Q83.07 2.44 83.89 3.58Q84.71 4.73 85.21 6.45Q85.70 8.16 85.70 10.63L85.70 10.63L85.70 11.80Q85.70 14.47 85.24 16.38Q84.79 18.28 84.02 19.58Q83.26 20.88 82.26 21.66Q81.25 22.44 80.17 22.84Q79.08 23.24 77.98 23.37Q76.88 23.50 75.90 23.50L75.90 23.50L75.41 23.50L75.41 33.65L70.35 33.65ZM75.41 19.79L75.66 19.79Q77.03 19.79 77.97 19.38Q78.91 18.98 79.46 18.13Q80.02 17.29 80.26 15.95Q80.51 14.61 80.51 12.73L80.51 12.73L80.51 9.73Q80.51 8.24 80.29 7.16Q80.08 6.07 79.52 5.37Q78.96 4.67 78.03 4.33Q77.09 3.98 75.66 3.98L75.66 3.98L75.41 3.98L75.41 19.79ZM96.91 33.95L96.91 33.95Q96.11 33.95 95.18 33.82Q94.24 33.69 93.32 33.28Q92.40 32.87 91.55 32.12Q90.70 31.37 90.05 30.14Q89.39 28.91 89.00 27.10Q88.61 25.29 88.61 22.79L88.61 22.79L88.61 10.98Q88.61 8.46 89.01 6.67Q89.41 4.88 90.08 3.66Q90.74 2.44 91.59 1.72Q92.44 1.00 93.37 0.62Q94.30 0.23 95.21 0.12Q96.13 0 96.91 0L96.91 0Q97.66 0 98.56 0.11Q99.47 0.21 100.38 0.58Q101.29 0.94 102.15 1.65Q103.01 2.36 103.67 3.58Q104.34 4.80 104.74 6.61Q105.14 8.42 105.14 10.98L105.14 10.98L105.14 22.79Q105.14 25.27 104.73 27.06Q104.32 28.85 103.65 30.09Q102.99 31.33 102.12 32.08Q101.25 32.83 100.34 33.25Q99.43 33.67 98.54 33.81Q97.64 33.95 96.91 33.95ZM96.91 30.14L96.91 30.14Q97.66 30.14 98.21 29.88Q98.77 29.63 99.13 29.00Q99.49 28.38 99.68 27.35Q99.86 26.33 99.86 24.77L99.86 24.77L99.86 9.59Q99.86 7.99 99.68 6.91Q99.49 5.84 99.13 5.19Q98.77 4.53 98.21 4.26Q97.66 3.98 96.91 3.98L96.91 3.98Q96.15 3.98 95.59 4.26Q95.02 4.53 94.65 5.19Q94.28 5.84 94.09 6.91Q93.91 7.99 93.91 9.59L93.91 9.59L93.91 24.77Q93.91 26.33 94.09 27.35Q94.28 28.38 94.65 29.00Q95.02 29.63 95.59 29.88Q96.15 30.14 96.91 30.14ZM109.92 33.65L109.92 0.29L115.41 0.29Q116.35 0.29 117.47 0.37Q118.59 0.45 119.72 0.75Q120.84 1.05 121.88 1.66Q122.93 2.27 123.74 3.32Q124.55 4.38 125.04 5.97Q125.53 7.56 125.53 9.82L125.53 9.82L125.53 10.66Q125.53 14.47 124.43 16.87Q123.34 19.26 121.21 20.31L121.21 20.31L126.56 33.65L121.21 33.65L116.78 21.17L114.88 21.17L114.88 33.65L109.92 33.65ZM114.88 17.52L115.64 17.52Q116.97 17.52 117.89 17.23Q118.81 16.93 119.38 16.24Q119.94 15.55 120.20 14.40Q120.45 13.26 120.45 11.58L120.45 11.58L120.45 8.95Q120.45 7.66 120.21 6.72Q119.98 5.78 119.42 5.18Q118.87 4.57 117.95 4.28Q117.03 3.98 115.64 3.98L115.64 3.98L114.88 3.98L114.88 17.52ZM133.48 33.65L133.48 4.28L128.11 4.28L128.11 0.29L143.89 0.29L143.89 4.28L138.54 4.28L138.54 33.65L133.48 33.65ZM146.02 26.89L146.02 26.89Q146.02 25.82 146.14 24.91Q146.27 24.00 146.52 22.95L146.52 22.95L150.45 22.95L150.45 24.57Q150.45 25.92 150.62 26.95Q150.78 27.99 151.16 28.70Q151.54 29.41 152.18 29.78Q152.81 30.14 153.73 30.14L153.73 30.14Q155.18 30.14 155.94 29.35Q156.70 28.55 156.70 27.03L156.70 27.03Q156.70 26.25 156.59 25.60Q156.48 24.94 156.22 24.30Q155.96 23.65 155.51 22.94Q155.06 22.23 154.36 21.35L154.36 21.35L149.08 15.08Q147.68 13.28 146.91 11.46Q146.15 9.63 146.15 7.56L146.15 7.56Q146.15 5.90 146.67 4.51Q147.19 3.13 148.16 2.12Q149.14 1.11 150.58 0.56Q152.01 0 153.83 0L153.83 0Q156.04 0 157.51 0.63Q158.98 1.25 159.86 2.27Q160.74 3.28 161.10 4.54Q161.46 5.80 161.46 7.07L161.46 7.07Q161.46 8.14 161.30 9.05Q161.13 9.96 160.92 11.05L160.92 11.05L157.01 11.05L157.01 9.47Q157.01 6.82 156.25 5.40Q155.49 3.98 153.77 3.98L153.77 3.98Q152.34 3.98 151.64 4.78Q150.94 5.57 150.94 6.89L150.94 6.89Q150.94 7.60 151.04 8.16Q151.15 8.73 151.36 9.21Q151.56 9.69 151.86 10.14Q152.15 10.59 152.52 11.07L152.52 11.07L158.40 18.18Q160 20.27 160.86 22.20Q161.72 24.12 161.72 26.27L161.72 26.27Q161.72 28.05 161.16 29.47Q160.61 30.90 159.57 31.89Q158.54 32.89 157.07 33.43Q155.61 33.96 153.77 33.96L153.77 33.96Q151.50 33.96 150.01 33.36Q148.52 32.75 147.63 31.76Q146.74 30.76 146.38 29.49Q146.02 28.22 146.02 26.89Z" transform="translate(0 0) scale(1)"></path><g fill="#ead017" color="#ead017" transform="translate(176.719 0) scale(0.6659774)"><svg width="44.0" height="51.0" x="0.0" y="0.0" viewBox="0 0 44 51"><path fill="currentColor" fill-rule="evenodd" d="M21.986 0L44 12.704v25.393L22.029 50.801.014 38.111 0 12.718 21.986 0zM22 7.428L6.43 16.425V34.42l15.599 8.996 15.555-9.01-.014-17.994L22 7.428zm-.001 5.403l10.907 6.302v12.561l-10.907 6.302-10.893-6.288-.015-12.575L22 12.83z"></path></svg></g></svg>